<?xml version="1.0" encoding="UTF-8"?>
<svg viewBox="0 0 600 600" width="25" height="25" xmlns="http://www.w3.org/2000/svg" xmlns:xlink="http://www.w3.org/1999/xlink">
<defs>
<pattern id="a" patternTransform="scale(1.02 1)" xlink:href="#b"/>
<pattern id="b" height="600" patternTransform="matrix(1.02 0 0 1.02 -109 0)" patternUnits="userSpaceOnUse" width="551.367">
<g transform="matrix(.681 0 0 1.2 -81.7 -66.2)">
<path d="m120 555h30v-500h-30zm60 0h90v-500h-90zm120-500v500h90v-500z" fill="#900"/>
<path d="m840 555h30v-500h-30zm60-500v500h30v-500zm-480 500h30v-500h-30zm60-500v500h30v-500z" fill="#396"/>
<path d="m540 555h90v-500h-90zm120 0h30v-500h-30zm60-500v500h90v-500z" fill="#069"/>
</g>
</pattern>
<pattern id="c" height="600" patternTransform="translate(19.6)" patternUnits="userSpaceOnUse" width="560.7">
<rect fill="url(#a)" height="600" width="561"/>
</pattern>
</defs>
<path d="m244 206c .02 18.8 4.25 39 17.6 53.1 15 15.7 39.8 19.4 59.5 11.4 17.6-7.05 28.8-24.6 32.3-42.6 3.86-20.3 3.03-42.2-6.03-61-7.4-15.1-22.1-26.7-38.9-28.7-17-2.53-35.6 2.49-47.3 15.5-12.8 14-17.1 33.8-17.1 52.4zm127 146c-23.5-1.82-42.1-6.36-55.9-13.6-13.8-7.09-22.6-18.5-26.5-34.1-11.3-1.09-21.8-4-31.6-8.73-9.64-4.73-18.1-11.2-25.4-19.4-7.27-8.18-13-18.1-17.2-29.7-4.18-11.6-6.27-25-6.27-40.1 0-16.2 2.45-30.4 7.36-42.6 4.91-12.4 11.5-22.7 19.9-31.1 8.55-8.36 18.4-14.6 29.5-18.8 11.1-4.18 22.8-6.27 35.2-6.27 12.4 0 24.1 2.09 35.2 6.27 11.1 4.18 20.7 10.5 28.9 18.8 8.36 8.36 15 18.7 19.9 31.1 4.91 12.2 7.36 26.4 7.36 42.6 0 13.6-1.73 25.9-5.18 36.8-3.46 10.9-8.27 20.5-14.5 28.6-6.18 8-13.5 14.5-21.8 19.6-8.18 5.09-17.2 8.73-27 10.9.55 3.82 2.45 7.09 5.73 9.82 3.27 2.73 7.36 5 12.3 6.82 5.09 1.82 10.8 3.27 17.2 4.36 6.55 1.27 13.4 2.18 20.5 2.73m-140 206c22.3 11.3 48.2 15.5 72.8 11.1 10.9-1.64 21.4-10.2 21.3-21.9 1.38-13.1-9.7-22.7-20.4-27.8-22.2-11.2-49.3-13.7-67.4-32.2-11.1-10.8-14.9-27.1-12.7-42.1 1.71-20 17.2-36.4 35.6-43 21.4-7.74 45.1-7.42 67.1-2.73 9.2 2.66 20.4 4.85 27.6 10.3-3.84 9.5-7.67 19-11.5 28.5-18.6-9.37-40.4-13.4-61-9.58-10.1 1.84-19.4 10.4-18.7 21.2-.86 12.1 9.89 20.3 19.7 24.8 20.7 9.76 44.4 14 62.5 28.8 13.8 10.7 19.7 28.7 18.4 45.7-.17 18.9-12.4 36.3-29.6 43.8-22.1 9.81-47.3 10.1-71 7.34-15.2-2.03-30.4-5.7-43.9-13m355-244h-126v280h-315v-280h-126l283-315z" fill="url(#c)" fill-rule="evenodd"/>
</svg>