<?xml version="1.0" encoding="UTF-8" standalone="no"?>
<!-- Created with Inkscape (http://www.inkscape.org/) -->

<svg
   viewBox="0 0 390.70404 170.1615"
   version="1.1"
   id="svg1"
   xml:space="preserve"
   xmlns:xlink="http://www.w3.org/1999/xlink"
   xmlns="http://www.w3.org/2000/svg"
   xmlns:svg="http://www.w3.org/2000/svg"><defs
     id="defs1"><style
       id="style1">.cls-1{fill:url(#Neues_Verlaufsfeld_17-2);}.cls-2{fill:url(#Neues_Verlaufsfeld_16);}.cls-3{fill:url(#Neues_Verlaufsfeld_17);}.cls-4{fill:url(#Neues_Verlaufsfeld_15);}.cls-5{fill:url(#Unbenannter_Verlauf_3);}</style><linearGradient
       id="Neues_Verlaufsfeld_17"
       x1="847.15002"
       y1="640.71002"
       x2="1490.29"
       y2="640.71002"
       gradientUnits="userSpaceOnUse"><stop
         offset="0"
         stop-color="#59a4d9"
         id="stop1" /><stop
         offset=".08"
         stop-color="#4d9bd5"
         id="stop2" /><stop
         offset=".34"
         stop-color="#2b83cb"
         id="stop3" /><stop
         offset=".58"
         stop-color="#1371c4"
         id="stop4" /><stop
         offset=".81"
         stop-color="#0566c0"
         id="stop5" /><stop
         offset="1"
         stop-color="#0063bf"
         id="stop6" /></linearGradient><linearGradient
       id="Neues_Verlaufsfeld_16"
       x1="669.42999"
       y1="640.71002"
       x2="977.67999"
       y2="640.71002"
       gradientUnits="userSpaceOnUse"
       gradientTransform="matrix(0.26458333,0,0,0.26458335,394.67294,0)"><stop
         offset="0"
         stop-color="#5cb075"
         id="stop7" /><stop
         offset="0"
         stop-color="#5baf74"
         id="stop8" /><stop
         offset=".36"
         stop-color="#45a36c"
         id="stop9" /><stop
         offset=".7"
         stop-color="#379b67"
         id="stop10" /><stop
         offset="1"
         stop-color="#396"
         id="stop11" /></linearGradient><linearGradient
       id="Neues_Verlaufsfeld_17-2"
       x1="847.15002"
       y1="640.71002"
       x2="1490.29"
       y2="640.71002"
       xlink:href="#Neues_Verlaufsfeld_17"
       gradientTransform="matrix(0.26458333,0,0,0.26458335,-113.69408,-84.440448)" /><linearGradient
       id="Unbenannter_Verlauf_3"
       x1="589.46997"
       y1="640.71002"
       x2="1108.21"
       y2="640.71002"
       gradientUnits="userSpaceOnUse"
       gradientTransform="matrix(0.26458333,0,0,0.26458335,-113.69408,-84.440448)"><stop
         offset="0"
         stop-color="#396"
         id="stop12" /><stop
         offset=".15"
         stop-color="#396"
         id="stop13" /><stop
         offset="1"
         stop-color="#396"
         id="stop14" /></linearGradient><linearGradient
       id="Neues_Verlaufsfeld_15"
       x1="429.70999"
       y1="640.71002"
       x2="750.34998"
       y2="640.71002"
       gradientUnits="userSpaceOnUse"
       gradientTransform="matrix(0.26458333,0,0,0.26458335,354.51293,-325.95985)"><stop
         offset="0"
         stop-color="#cd2e29"
         id="stop15" /><stop
         offset=".19"
         stop-color="#ba1d1a"
         id="stop16" /><stop
         offset=".44"
         stop-color="#a70c0b"
         id="stop17" /><stop
         offset=".71"
         stop-color="#9c0302"
         id="stop18" /><stop
         offset="1"
         stop-color="#900"
         id="stop19" /></linearGradient><linearGradient
       xlink:href="#Neues_Verlaufsfeld_17"
       id="linearGradient6"
       gradientUnits="userSpaceOnUse"
       x1="847.15002"
       y1="640.71002"
       x2="1490.29"
       y2="640.71002"
       gradientTransform="matrix(0.26458333,0,0,0.26458335,354.51293,-325.95985)" /><linearGradient
       xlink:href="#Neues_Verlaufsfeld_16"
       id="linearGradient7"
       gradientUnits="userSpaceOnUse"
       gradientTransform="matrix(-0.26458333,0,0,0.26458335,504.75089,-84.440448)"
       x1="669.42999"
       y1="640.71002"
       x2="977.67999"
       y2="640.71002" /><linearGradient
       xlink:href="#Neues_Verlaufsfeld_16"
       id="linearGradient9"
       gradientUnits="userSpaceOnUse"
       gradientTransform="matrix(0.26458333,0,0,0.26458335,-113.69408,-84.440448)"
       x1="669.42999"
       y1="640.71002"
       x2="977.67999"
       y2="640.71002" /><clipPath
       clipPathUnits="userSpaceOnUse"
       id="clipPath9"><path
         class="cls-3"
         d="m 681.53526,-160.7593 78.97019,-78.97019 c 2.38657,-2.38654 6.25477,-2.38654 8.64132,0 l 46.22535,46.22536 -32.74483,32.74483 c -2.38654,2.38654 -2.38654,6.25475 0,8.64129 l 32.74483,32.74484 -46.22535,46.225361 c -2.38655,2.386539 -6.25475,2.386539 -8.64132,0 l -78.97019,-78.970201 c -2.38649,-2.38654 -2.38649,-6.25475 0,-8.64129 z"
         id="path9"
         style="display:none;fill:#ffffff;stroke-width:0.264583" /><path
         id="lpe_path-effect9"
         style="fill:#ffffff;stroke-width:0.264583"
         class="powerclip"
         d="M 608.19075,-246.51939 H 753.81748 V -66.357904 H 608.19075 Z m 73.34451,85.76009 c -2.38649,2.38654 -2.38649,6.25475 0,8.64129 l 78.97019,78.970201 c 2.38657,2.386539 6.25477,2.386539 8.64132,0 l 46.22535,-46.225361 -32.74483,-32.74484 c -2.38654,-2.38654 -2.38654,-6.25475 0,-8.64129 l 32.74483,-32.74483 -46.22535,-46.22536 c -2.38655,-2.38654 -6.25475,-2.38654 -8.64132,0 z" /></clipPath><linearGradient
       xlink:href="#Neues_Verlaufsfeld_15"
       id="linearGradient10"
       gradientUnits="userSpaceOnUse"
       gradientTransform="matrix(-0.26458333,0,0,0.26458335,504.39814,-84.437538)"
       x1="429.70999"
       y1="640.71002"
       x2="750.34998"
       y2="640.71002" /><linearGradient
       xlink:href="#Neues_Verlaufsfeld_15"
       id="linearGradient11"
       gradientUnits="userSpaceOnUse"
       gradientTransform="matrix(0.26458333,0,0,0.26458335,-113.69408,-84.440448)"
       x1="429.70999"
       y1="640.71002"
       x2="750.34998"
       y2="640.71002" /></defs><path
     class="cls-3"
     d="m 747.02758,-160.7593 -78.97018,-78.97019 c -2.38654,-2.38654 -6.25475,-2.38654 -8.64129,0 l -46.22536,46.22536 32.74483,32.74483 c 2.38655,2.38654 2.38655,6.25475 0,8.64129 l -32.74483,32.74484 46.22536,46.225361 c 2.38654,2.38654 6.25475,2.38654 8.64129,0 l 78.97018,-78.970201 c 2.38654,-2.38654 2.38654,-6.25475 0,-8.64129 z"
     id="path19"
     style="fill:url(#linearGradient6);stroke-width:0.264583"
     clip-path="url(#clipPath9)"
     transform="translate(-468.20701,241.5194)" /><path
     class="cls-2"
     d="m 110.51383,85.771312 c -0.0529,-0.46037 -0.0529,-0.92075 0,-1.38112 0.15081,-1.32557 0.70643,-2.61409 1.72243,-3.63009 l 32.74484,-32.74483 -29.76827,-29.76828 c -1.29117,-1.29116 -3.01361,-1.85737 -4.70165,-1.75418 -1.43404,0.09 -2.84427,0.65616 -3.93965,1.75418 l -43.148242,43.14826 19.79877,19.79877 c 2.14841,2.14842 2.14841,5.63033 0,7.7761 l -19.79877,19.798778 43.148242,43.14825 c 1.09538,1.09537 2.50561,1.66423 3.93965,1.75419 1.68804,0.10583 3.41048,-0.46303 4.70165,-1.75419 L 144.9811,122.14888 112.23626,89.404042 c -1.016,-1.016 -1.57427,-2.30452 -1.72243,-3.63008 z"
     id="path20"
     style="fill:url(#linearGradient9);stroke-width:0.264583" /><path
     class="cls-2"
     d="m 280.543,85.771312 c 0.0529,-0.46037 0.0529,-0.92075 0,-1.38112 -0.15081,-1.32557 -0.70643,-2.61409 -1.72243,-3.63009 L 246.07573,48.015272 275.844,18.246992 c 1.29117,-1.29116 3.01361,-1.85737 4.70165,-1.75418 1.43404,0.09 2.84427,0.65616 3.93965,1.75418 l 43.14824,43.14826 -19.79877,19.79877 c -2.14841,2.14842 -2.14841,5.63033 0,7.7761 l 19.79877,19.798778 -43.14824,43.14825 c -1.09538,1.09537 -2.50561,1.66423 -3.93965,1.75419 -1.68804,0.10583 -3.41048,-0.46303 -4.70165,-1.75419 l -29.76827,-29.76827 32.74484,-32.744838 c 1.016,-1.016 1.57427,-2.30452 1.72243,-3.63008 z"
     id="path20-9"
     style="display:inline;fill:url(#linearGradient7);stroke-width:0.264583" /><path
     class="cls-1"
     d="m 110.51383,85.771312 v -1.38112 c -0.0529,0.46037 -0.0529,0.92075 0,1.38112 z"
     id="path21"
     style="fill:url(#Neues_Verlaufsfeld_17-2);stroke-width:0.264583" /><path
     class="cls-5"
     d="m 110.51383,85.771312 v -1.38112 c -0.0529,0.46037 -0.0529,0.92075 0,1.38112 z"
     id="path22"
     style="fill:url(#Unbenannter_Verlauf_3);stroke-width:0.264583" /><path
     class="cls-4"
     d="m 44.061078,80.760102 19.3675,-19.3675 -17.12119,-17.12119 c -2.14842,-2.14841 -5.63033,-2.14841 -7.7761,0 L 1.6113285,81.191372 c -2.14842001,2.14842 -2.14842001,5.63034 0,7.77611 L 38.531288,125.88744 c 2.14841,2.14841 5.63033,2.14841 7.7761,0 l 17.11854,-17.12119 -19.3675,-19.367498 c -2.38654,-2.38654 -2.38654,-6.25475 0,-8.64129 z"
     id="path23"
     style="fill:url(#linearGradient11);stroke-width:0.264583" /><path
     class="cls-4"
     d="m 346.64298,80.763012 -19.3675,-19.3675 17.12119,-17.12119 c 2.14842,-2.14841 5.63033,-2.14841 7.7761,0 l 36.91997,36.91996 c 2.14842,2.14842 2.14842,5.63034 0,7.77611 l -36.91996,36.919958 c -2.14841,2.14841 -5.63033,2.14841 -7.7761,0 l -17.11855,-17.12119 19.3675,-19.367498 c 2.38654,-2.38654 2.38654,-6.25475 0,-8.64129 z"
     id="path23-0"
     style="fill:url(#linearGradient10);stroke-width:0.264583" /></svg>
